<?xml version="1.0" encoding="utf-8"?>
<!-- Generator: Adobe Illustrator 22.1.0, SVG Export Plug-In . SVG Version: 6.00 Build 0)  -->
<svg version="1.1" id="レイヤー_1" xmlns="http://www.w3.org/2000/svg" xmlns:xlink="http://www.w3.org/1999/xlink" x="0px"
	 y="0px" viewBox="0 0 209.8 99.2" style="enable-background:new 0 0 209.8 99.2;" xml:space="preserve">
<style type="text/css">
	.st0{fill:#C7C6C6;}
</style>
<g id="round-play_x5F_arrow-24px">
</g>
<g id="round-skip_x5F_previous-24px">
</g>
<g id="round-skip_x5F_next-24px">
</g>
<g id="round-repeat-24px">
</g>
<g id="round-shuffle-24px">
</g>
<g id="round-pause-24px">
</g>
<g id="round-apps-24px">
</g>
<g id="round-music_x5F_note-24px">
</g>
<g id="round-settings-24px">
</g>
<path class="st0" d="M199.8,6.1H10c-2.3,0-4.1,1.9-4.1,4.2v78.6c0,2.3,1.8,4.2,4.1,4.2h189.8c2.3,0,4.1-1.9,4.1-4.2V10.3
	C203.9,8,202,6.1,199.8,6.1z M171,9.3h11.3v43.4H171V9.3z M152,9.3v43.4h-11.3V9.3H152z M110.4,9.3h11.3v43.4h-11.3V9.3z M59.3,9.3
	h11.3v43.4H59.3V9.3z M27.4,9.3h11.3v43.4H27.4V9.3z M32.6,89.9L9,89.9V9.3h15.4v46.5h8.2V89.9z M62.3,89.9l-26.7,0V55.8h6.1V9.3
	h14.4v46.5h6.1V89.9z M89,90l-23.6,0V55.8h8.2V9.3L89,9.3V90z M115.6,89.9l-23.5,0l0-80.6h15.3v46.5h8.2V89.9z M174.1,89.9l-55.4,0
	V55.8h6.1V9.3h12.8v46.5h7.7v34.2l2.9,0V55.8h6.9V9.3h12.8v46.5h6.1V89.9z M200.8,90l-23.6,0V55.8h8.2V9.3l15.4,0.1V90z"/>
</svg>
